<svg xmlns="http://www.w3.org/2000/svg" viewBox="0 0 320 72" role="img" aria-labelledby="title desc">
  <title id="title">Image Engineering</title>
  <desc id="desc">Stylised Image Engineering lettering</desc>
  <rect width="320" height="72" rx="16" fill="none" />
  <g fill="#ffffff">
    <path d="M30.4 18.8h10.8v34.4H30.4zM58.5 18.8h10.8v34.4h-10.8zM43.6 18.8h10.8v34.4H43.6z" opacity="0.18"/>
    <path d="M98.4 23.6c6.9 0 11.8 3.4 14.1 9.1h-10.1c-1-1.5-2.4-2.3-4.3-2.3-3.3 0-5.4 2.5-5.4 6.5s2 6.5 5.4 6.5c1.9 0 3.4-0.8 4.3-2.3h10.1c-2.3 5.6-7.2 9.1-14.1 9.1-9 0-15.3-6.3-15.3-13.3 0-7 6.3-13.3 15.3-13.3zM131.1 23.6c8.5 0 14.4 5.8 14.4 13.2s-5.9 13.2-14.4 13.2-14.4-5.8-14.4-13.2 5.9-13.2 14.4-13.2zm0 8.2c-3 0-4.9 2.2-4.9 5s1.9 5 4.9 5 4.9-2.2 4.9-5-1.9-5-4.9-5zM162 46.7c2.1 0 3.6-0.9 4.6-2.6h10.2c-2.4 5.8-7.3 9.2-14.4 9.2-8.8 0-15-6.2-15-13.4s6.2-13.4 15-13.4c7.1 0 12 3.3 14.4 9.2h-10.2c-1-1.7-2.5-2.6-4.6-2.6-3.2 0-5 2.5-5 6.7s1.9 6.7 5 6.7zM186.7 18.8h10.8v13c2.4-2.5 5.4-3.8 8.7-3.8 7.4 0 12.2 4.9 12.2 12.9v12.2h-10.8V42c0-3.4-1.9-5.5-4.9-5.5s-5.2 2.2-5.2 5.9v10.9h-10.8V18.8zM231.9 18.8h10.8v34.4h-10.8zM268.4 23.6c8.5 0 14.5 5.8 14.5 13.2s-6 13.2-14.5 13.2c-8.5 0-14.5-5.8-14.5-13.2s6-13.2 14.5-13.2zm0 8.2c-3 0-4.9 2.2-4.9 5s1.9 5 4.9 5 4.9-2.2 4.9-5-1.9-5-4.9-5z"/>
  </g>
</svg>
